<svg width="958" height="180" viewBox="0 0 958 180" fill="none" xmlns="http://www.w3.org/2000/svg">
<rect width="958" height="180" rx="14" fill="black" fill-opacity="0.6"/>
<path d="M57.488 58.908C57.488 56.004 60.032 54.444 62.648 54.444C64.976 54.444 67.616 55.836 68.144 59.052L66.08 59.556C65.768 57.06 64.088 56.412 62.48 56.412C60.752 56.412 59.648 57.324 59.648 58.74C59.648 60.156 60.464 60.852 61.784 61.26L64.928 62.172C66.848 62.724 68.408 63.756 68.408 66.276C68.408 69.18 65.816 70.812 62.984 70.812C60.056 70.812 57.152 69.012 56.696 65.676L58.808 65.148C59.096 68.172 61.304 68.844 63.008 68.844C65.264 68.844 66.272 67.86 66.272 66.444C66.272 65.1 65.36 64.452 63.992 64.068L61.064 63.204C59.096 62.652 57.488 61.572 57.488 58.908ZM81.2896 70.5H79.2976V68.436C78.3376 70.116 76.6576 70.812 75.0736 70.812C72.9856 70.812 71.0896 69.66 71.0896 66.876V58.404H73.0816V66.3C73.0816 68.22 73.8976 68.964 75.7936 68.964C77.7136 68.964 79.2976 67.932 79.2976 65.508V58.404H81.2896V70.5ZM91.2526 58.068C93.7486 58.068 96.6526 60.036 96.6526 64.26C96.6526 68.676 93.8686 70.812 91.0126 70.812C89.3806 70.812 87.9166 69.828 86.9806 68.148V74.7H84.9886V58.404H86.9806V60.756C87.6766 59.508 89.0446 58.068 91.2526 58.068ZM90.7966 59.844C88.7806 59.844 86.9806 61.284 86.9806 64.404C86.9806 67.404 88.7806 69.036 90.7726 69.036C92.6686 69.036 94.6366 67.524 94.6366 64.308C94.6366 61.308 92.6446 59.844 90.7966 59.844ZM105.667 58.068C108.163 58.068 111.067 60.036 111.067 64.26C111.067 68.676 108.283 70.812 105.427 70.812C103.795 70.812 102.331 69.828 101.395 68.148V74.7H99.4027V58.404H101.395V60.756C102.091 59.508 103.459 58.068 105.667 58.068ZM105.211 59.844C103.195 59.844 101.395 61.284 101.395 64.404C101.395 67.404 103.195 69.036 105.187 69.036C107.083 69.036 109.051 67.524 109.051 64.308C109.051 61.308 107.059 59.844 105.211 59.844ZM118.689 58.068C121.857 58.068 124.473 60.468 124.473 64.428C124.473 68.388 121.857 70.812 118.689 70.812C115.497 70.812 112.905 68.388 112.905 64.428C112.905 60.468 115.497 58.068 118.689 58.068ZM118.689 59.844C116.649 59.844 114.921 61.356 114.921 64.428C114.921 67.524 116.649 69.036 118.689 69.036C120.729 69.036 122.457 67.524 122.457 64.428C122.457 61.356 120.729 59.844 118.689 59.844ZM132.622 60.228C130.894 60.228 129.238 61.404 129.238 65.172V70.5H127.246V58.404H129.238V61.14C130.174 58.692 132.094 58.068 133.198 58.068C133.63 58.068 134.014 58.14 134.302 58.26L134.062 60.444C133.678 60.324 133.27 60.228 132.622 60.228ZM137.412 55.452L139.404 55.068V58.404H142.572V60.084H139.404V67.62C139.404 68.508 139.836 68.964 140.892 68.964C141.468 68.964 141.756 68.892 142.164 68.796L142.548 70.476C141.996 70.644 141.228 70.812 140.628 70.812C138.444 70.812 137.412 69.588 137.412 67.692V60.084H135.036V58.404H137.412V55.452ZM156.18 70.812C153.636 70.812 150.78 68.772 150.78 64.428C150.78 60.132 153.612 58.068 156.108 58.068C158.148 58.068 159.492 58.908 160.332 60.924V58.404H162.324V70.5H160.332V67.788C159.756 69.348 158.436 70.812 156.18 70.812ZM156.516 59.844C154.692 59.844 152.796 61.284 152.796 64.476C152.796 67.644 154.692 69.036 156.516 69.036C158.556 69.036 160.332 67.716 160.332 64.476C160.332 61.332 158.532 59.844 156.516 59.844ZM171.388 59.916C169.42 59.916 168.004 61.044 168.004 63.516V70.5H166.012V58.404H168.004V60.276C168.82 58.716 170.572 58.068 171.988 58.068C174.148 58.068 176.116 59.148 176.116 62.388V70.5H174.124V62.964C174.124 60.732 172.924 59.916 171.388 59.916ZM190.426 54.228V70.5H188.434V68.244C187.81 69.612 186.586 70.812 184.234 70.812C181.738 70.812 178.858 68.748 178.858 64.332C178.858 60.108 181.69 58.068 184.57 58.068C186.274 58.068 187.618 58.956 188.434 60.66V54.228H190.426ZM184.69 59.844C182.842 59.844 180.874 61.308 180.874 64.38C180.874 67.524 182.818 69.036 184.666 69.036C186.682 69.036 188.434 67.644 188.434 64.476C188.434 61.428 186.682 59.844 184.69 59.844ZM211.238 54.228V70.5H209.246V68.244C208.622 69.612 207.398 70.812 205.046 70.812C202.55 70.812 199.67 68.748 199.67 64.332C199.67 60.108 202.502 58.068 205.382 58.068C207.086 58.068 208.43 58.956 209.246 60.66V54.228H211.238ZM205.502 59.844C203.654 59.844 201.686 61.308 201.686 64.38C201.686 67.524 203.63 69.036 205.478 69.036C207.494 69.036 209.246 67.644 209.246 64.476C209.246 61.428 207.494 59.844 205.502 59.844ZM219.894 59.844C217.878 59.844 216.486 60.948 216.126 63.156H223.59C223.446 60.852 221.91 59.844 219.894 59.844ZM225.51 64.764H216.03C216.15 67.284 217.494 69.036 220.11 69.036C222.318 69.036 223.206 68.004 223.566 66.42L225.39 66.828C224.934 69.588 222.318 70.812 220.134 70.812C216.726 70.812 214.014 68.388 214.014 64.404C214.014 60.516 216.63 58.068 219.942 58.068C223.23 58.068 225.51 60.396 225.51 64.044V64.764ZM226.774 58.404H229.03L232.51 68.052L236.014 58.404H238.246L233.422 70.5H231.598L226.774 58.404ZM245.371 59.844C243.355 59.844 241.963 60.948 241.603 63.156H249.067C248.923 60.852 247.387 59.844 245.371 59.844ZM250.987 64.764H241.507C241.627 67.284 242.971 69.036 245.587 69.036C247.795 69.036 248.683 68.004 249.043 66.42L250.867 66.828C250.411 69.588 247.795 70.812 245.611 70.812C242.203 70.812 239.491 68.388 239.491 64.404C239.491 60.516 242.107 58.068 245.419 58.068C248.707 58.068 250.987 60.396 250.987 64.044V64.764ZM253.762 54.228H255.754V70.5H253.762V54.228ZM264.329 58.068C267.497 58.068 270.113 60.468 270.113 64.428C270.113 68.388 267.497 70.812 264.329 70.812C261.137 70.812 258.545 68.388 258.545 64.428C258.545 60.468 261.137 58.068 264.329 58.068ZM264.329 59.844C262.289 59.844 260.561 61.356 260.561 64.428C260.561 67.524 262.289 69.036 264.329 69.036C266.369 69.036 268.097 67.524 268.097 64.428C268.097 61.356 266.369 59.844 264.329 59.844ZM279.151 58.068C281.647 58.068 284.551 60.036 284.551 64.26C284.551 68.676 281.767 70.812 278.911 70.812C277.279 70.812 275.815 69.828 274.879 68.148V74.7H272.887V58.404H274.879V60.756C275.575 59.508 276.943 58.068 279.151 58.068ZM278.695 59.844C276.679 59.844 274.879 61.284 274.879 64.404C274.879 67.404 276.679 69.036 278.671 69.036C280.567 69.036 282.535 67.524 282.535 64.308C282.535 61.308 280.543 59.844 278.695 59.844ZM299.877 59.916C298.221 59.916 296.997 61.044 296.997 63.516V70.5H294.981V63.036C294.981 60.804 293.805 59.916 292.269 59.916C290.565 59.916 289.293 61.044 289.293 63.516V70.5H287.301V58.404H289.293V60.252C290.085 58.692 291.669 58.068 293.061 58.068C294.525 58.068 296.013 58.668 296.661 60.42C297.525 58.62 299.229 58.068 300.549 58.068C302.661 58.068 304.677 59.148 304.677 62.388V70.5H302.685V62.916C302.685 60.804 301.509 59.916 299.877 59.916ZM313.293 59.844C311.277 59.844 309.885 60.948 309.525 63.156H316.989C316.845 60.852 315.309 59.844 313.293 59.844ZM318.909 64.764H309.429C309.549 67.284 310.893 69.036 313.509 69.036C315.717 69.036 316.605 68.004 316.965 66.42L318.789 66.828C318.333 69.588 315.717 70.812 313.533 70.812C310.125 70.812 307.413 68.388 307.413 64.404C307.413 60.516 310.029 58.068 313.341 58.068C316.629 58.068 318.909 60.396 318.909 64.044V64.764ZM327.06 59.916C325.092 59.916 323.676 61.044 323.676 63.516V70.5H321.684V58.404H323.676V60.276C324.492 58.716 326.244 58.068 327.66 58.068C329.82 58.068 331.788 59.148 331.788 62.388V70.5H329.796V62.964C329.796 60.732 328.596 59.916 327.06 59.916ZM336.162 55.452L338.154 55.068V58.404H341.322V60.084H338.154V67.62C338.154 68.508 338.586 68.964 339.642 68.964C340.218 68.964 340.506 68.892 340.914 68.796L341.298 70.476C340.746 70.644 339.978 70.812 339.378 70.812C337.194 70.812 336.162 69.588 336.162 67.692V60.084H333.786V58.404H336.162V55.452ZM350.442 54.228H352.434V60.708C353.082 59.556 354.402 58.068 356.61 58.068C359.106 58.068 362.01 60.036 362.01 64.26C362.01 68.676 359.25 70.812 356.37 70.812C354.666 70.812 353.25 69.804 352.434 68.316V70.5H350.442V54.228ZM356.226 59.844C354.234 59.844 352.434 61.284 352.434 64.404C352.434 67.404 354.234 69.036 356.202 69.036C358.074 69.036 359.994 67.524 359.994 64.308C359.994 61.308 358.05 59.844 356.226 59.844ZM365.674 74.628C364.906 74.628 364.162 74.412 363.706 74.196L364.042 72.492C364.378 72.66 364.978 72.9 365.818 72.9C367.642 72.9 368.362 71.316 367.642 69.516L363.202 58.404H365.458L369.058 68.58L372.442 58.404H374.674L369.778 71.436C368.962 73.62 367.738 74.628 365.674 74.628Z" fill="white"/>
<g clip-path="url(#clip0_118_10210)">
<g clip-path="url(#clip1_118_10210)">
<path d="M90.9761 120.131C91.2398 120.577 91.5914 120.844 92.0309 120.844C92.7341 120.844 93.1736 120.309 93.1736 119.685L93.1772 103.364C93.1772 102.74 92.6498 102.204 92.0346 102.204C91.5951 102.204 91.2435 102.383 90.9798 102.829C90.9798 102.829 89.3244 105.453 87.4455 109.229C85.5484 105.431 83.003 100.647 81.0766 96.7853C83.3363 93.2357 87.5811 90.5225 92.0346 90.5225C98.9748 90.5225 104.652 96.7667 104.652 103.81L104.685 119.685C104.685 126.728 99.0627 132.437 92.0346 132.437C87.5518 132.437 83.6 130.028 81.3989 126.46C69.8879 103.368 69.6242 102.829 69.6242 102.829C69.3605 102.383 69.0126 102.204 68.5731 102.204C67.9541 102.204 67.4304 102.74 67.4304 103.364V120.841C67.4304 127.259 62.3323 132.433 56.0073 132.433V103.368C56.0073 96.3207 61.6328 90.5262 68.5731 90.5262C73.4917 90.5262 77.7108 93.3807 79.8204 97.5695L90.9761 120.131Z" fill="white"/>
<path d="M122.66 125.211V123.022V100.216C122.66 99.5393 122.883 98.9707 123.334 98.5135C123.784 98.0563 124.341 97.8296 125.011 97.8296C125.395 97.8296 125.776 97.9076 126.146 98.0637C126.52 98.2199 126.795 98.428 126.974 98.6882L141.005 116.837V100.019C141.005 99.3944 141.203 98.8703 141.602 98.454C142.001 98.0377 142.506 97.8296 143.125 97.8296C143.741 97.8296 144.242 98.0377 144.627 98.454C145.011 98.8703 145.206 99.3944 145.206 100.019V122.825C145.206 123.502 144.978 124.07 144.532 124.527C144.081 124.985 143.524 125.211 142.854 125.211C142.495 125.211 142.14 125.152 141.796 125.037C141.452 124.921 141.199 124.758 141.045 124.546L126.901 106.319V120.941C126.901 123.301 125.018 125.211 122.693 125.211H122.66Z" fill="white"/>
<path d="M157.464 125.211V112.73L149.447 101.933C148.985 101.309 148.754 100.695 148.754 100.093C148.754 99.4168 149.018 98.8481 149.545 98.3909C150.073 97.9338 150.63 97.707 151.223 97.707C151.941 97.707 152.571 98.0713 153.113 98.8035L159.895 108.307L166.253 98.8815C166.792 98.101 167.436 97.707 168.18 97.707C168.795 97.707 169.337 97.9412 169.799 98.4095C170.26 98.8778 170.491 99.4539 170.491 100.13C170.491 100.651 170.348 101.134 170.066 101.576L162.012 113.273V120.77C162.012 123.219 160.057 125.204 157.643 125.204H157.464V125.211Z" fill="white"/>
<path d="M198.992 98.1607C199.212 98.3837 199.318 98.6625 199.318 99.0007V124.033C199.318 124.372 199.201 124.654 198.97 124.873C198.739 125.096 198.457 125.204 198.12 125.204C197.761 125.204 197.465 125.093 197.234 124.873C197.003 124.65 196.886 124.372 196.886 124.033V102.524L187.829 116.447C187.572 116.786 187.276 116.942 186.942 116.916H186.866C186.558 116.916 186.272 116.76 186.016 116.447L176.959 102.442V124.033C176.959 124.372 176.849 124.654 176.633 124.873C176.413 125.096 176.138 125.204 175.805 125.204C175.472 125.204 175.201 125.093 174.996 124.873C174.791 124.65 174.688 124.372 174.688 124.033V99.0044C174.688 98.6922 174.798 98.4172 175.014 98.183C175.234 97.9489 175.508 97.8299 175.842 97.8299C176.021 97.8299 176.215 97.8745 176.42 97.9674C176.625 98.0604 176.779 98.183 176.882 98.3391L186.979 113.712L197.153 98.3391C197.435 97.9489 197.783 97.7779 198.193 97.8299C198.512 97.8299 198.772 97.9414 198.992 98.1607Z" fill="white"/>
<path d="M222.695 123.253C222.915 123.487 223.021 123.762 223.021 124.074C223.021 124.412 222.911 124.687 222.695 124.895C222.475 125.104 222.201 125.208 221.867 125.208H207.723C207.39 125.208 207.111 125.096 206.895 124.877C206.676 124.654 206.569 124.375 206.569 124.037V99.0041C206.569 98.6659 206.679 98.3834 206.895 98.1641C207.115 97.9411 207.39 97.8296 207.723 97.8296H221.867C222.201 97.8296 222.479 97.9411 222.695 98.1641C222.915 98.3871 223.021 98.6659 223.021 99.0041C223.021 99.3423 222.911 99.6174 222.695 99.8255C222.475 100.034 222.201 100.138 221.867 100.138H208.994V109.958H220.131C220.465 109.958 220.743 110.069 220.959 110.288C221.179 110.511 221.285 110.79 221.285 111.128C221.285 111.467 221.175 111.742 220.959 111.95C220.739 112.158 220.465 112.262 220.131 112.262H208.994V122.899H221.867C222.201 122.903 222.479 123.018 222.695 123.253Z" fill="white"/>
<path d="M245.669 99.688C247.35 100.926 248.61 102.583 249.445 104.654C250.28 106.728 250.698 109.013 250.698 111.519C250.698 114.102 250.28 116.421 249.445 118.48C248.61 120.539 247.35 122.178 245.669 123.39C243.984 124.602 241.912 125.208 239.443 125.208H229.613C229.28 125.208 229.002 125.096 228.785 124.877C228.566 124.654 228.459 124.375 228.459 124.037V99.0041C228.459 98.6659 228.569 98.3834 228.785 98.1641C229.005 97.9411 229.28 97.8296 229.613 97.8296H239.443C241.908 97.8296 243.984 98.4503 245.669 99.688ZM245.955 119.755C247.471 117.655 248.229 114.912 248.229 111.522C248.229 109.411 247.907 107.501 247.266 105.791C246.625 104.085 245.614 102.713 244.241 101.684C242.867 100.654 241.139 100.138 239.055 100.138H230.884V122.903H239.055C242.142 122.903 244.439 121.851 245.955 119.755Z" fill="white"/>
<path d="M258.213 124.859C257.982 125.093 257.7 125.212 257.363 125.212C257.004 125.212 256.715 125.1 256.495 124.881C256.276 124.658 256.169 124.364 256.169 124V99.0416C256.169 98.6773 256.287 98.3837 256.517 98.1607C256.748 97.9377 257.045 97.8262 257.404 97.8262C257.737 97.8262 258.019 97.9451 258.253 98.1793C258.484 98.4134 258.601 98.6996 258.601 99.0416V123.996C258.572 124.338 258.444 124.624 258.213 124.859Z" fill="white"/>
<path d="M286.003 124.115C286.003 124.453 285.886 124.728 285.655 124.936C285.425 125.145 285.154 125.249 284.846 125.249C284.59 125.249 284.363 125.178 284.172 125.033C283.978 124.888 283.832 124.702 283.729 124.464L280.839 117.306H268.314L265.461 124.464C265.256 124.985 264.908 125.249 264.421 125.249C264.062 125.249 263.791 125.156 263.611 124.974C263.432 124.791 263.329 124.542 263.304 124.23V124.111C263.304 123.955 263.315 123.836 263.344 123.758L273.518 98.4913C273.723 97.9709 274.108 97.707 274.676 97.707C274.932 97.707 275.159 97.7777 275.349 97.9226C275.544 98.0676 275.69 98.2534 275.793 98.4913L285.93 123.643C285.978 123.855 286.003 124.011 286.003 124.115ZM269.197 115.001H279.913L274.518 101.625L269.197 115.001Z" fill="white"/>
</g>
</g>
<g clip-path="url(#clip2_118_10210)">
<path d="M941.212 74.2166L941.223 74.2124L941.235 74.2074C942.051 73.8558 942.624 73.9239 942.979 74.1694C943.34 74.4188 943.602 74.9373 943.602 75.757V108.833C943.602 109.475 943.457 109.999 943.177 110.414C942.899 110.827 942.465 111.164 941.831 111.396C930.096 115.667 921.157 117.789 912.234 117.789C903.311 117.789 894.371 115.667 882.637 111.396C882.002 111.164 881.569 110.827 881.29 110.414C881.011 109.999 880.866 109.475 880.866 108.833V75.757C880.866 74.9373 881.127 74.4188 881.488 74.1694C881.843 73.9239 882.416 73.8558 883.232 74.2074L883.244 74.2124L883.256 74.2166C894.522 78.2468 903.37 80.2739 912.234 80.2739C921.097 80.2739 929.945 78.2468 941.212 74.2166Z" stroke="#FF5B24" stroke-width="0.818061"/>
<path d="M883.255 72.9143L883.243 72.9184L883.232 72.9234C882.416 73.2764 881.843 73.2081 881.489 72.9619C881.127 72.7111 880.866 72.1894 880.866 71.3651V38.1414C880.866 37.4957 881.011 36.9687 881.291 36.5515C881.569 36.136 882.003 35.7979 882.638 35.5651C894.372 31.275 903.311 29.1436 912.234 29.1436C921.156 29.1436 930.096 31.275 941.83 35.5651C942.464 35.7979 942.898 36.136 943.177 36.5515C943.457 36.9687 943.602 37.4957 943.602 38.1414V71.3651C943.602 72.1894 943.34 72.7111 942.979 72.9619C942.624 73.2081 942.051 73.2764 941.236 72.9234L941.224 72.9184L941.212 72.9143C929.946 68.8659 921.098 66.8296 912.234 66.8296C903.37 66.8296 894.522 68.8659 883.255 72.9143Z" stroke="#FF5B24" stroke-width="0.818061"/>
<path d="M858.529 122.298L858.525 122.286L858.52 122.274C858.285 121.723 858.342 121.366 858.482 121.161C858.626 120.952 858.941 120.777 859.488 120.777H882.518C882.946 120.777 883.286 120.874 883.55 121.054C883.813 121.233 884.034 121.515 884.188 121.942C887.16 130.177 888.633 136.442 888.633 142.689C888.633 148.937 887.16 155.201 884.188 163.437C884.034 163.864 883.813 164.146 883.55 164.325C883.286 164.504 882.946 164.602 882.518 164.602H859.488C858.941 164.602 858.626 164.426 858.482 164.217C858.342 164.013 858.285 163.656 858.52 163.104L858.525 163.092L858.529 163.081C861.338 155.162 862.754 148.933 862.754 142.689C862.754 136.445 861.338 130.217 858.529 122.298Z" stroke="#FF5B24" stroke-width="0.818061"/>
<path d="M756.191 165H789.26C790.664 165 791.686 164.362 792.196 162.96C800.751 139.374 800.751 126.88 792.196 103.295C791.686 101.892 790.664 101.255 789.26 101.255H756.191C754.403 101.255 753.509 102.402 754.275 104.187C762.319 126.753 762.319 139.502 754.275 162.068C753.509 163.852 754.403 165 756.191 165Z" fill="#5A78FF"/>
<path d="M889.23 141.394C889.23 128.687 899.529 118.386 912.234 118.386C924.938 118.386 935.237 128.687 935.237 141.394C935.237 154.101 924.938 164.402 912.234 164.402C899.529 164.402 889.23 154.101 889.23 141.394Z" stroke="#FF5B24" stroke-width="0.818061"/>
<path d="M848.602 15.1993C831.003 15.1993 816.736 29.4691 816.736 47.0718C816.736 64.6745 831.003 78.9443 848.602 78.9443C866.201 78.9443 880.468 64.6745 880.468 47.0718C880.468 29.4691 866.201 15.1993 848.602 15.1993Z" fill="#FF5B24"/>
<path d="M857.614 161.175L857.618 161.187L857.623 161.199C858.108 162.33 858.03 163.163 857.661 163.699C857.289 164.24 856.537 164.602 855.407 164.602H810.823C809.937 164.602 809.202 164.401 808.615 164.003C808.03 163.607 807.559 162.993 807.239 162.111C801.479 146.209 798.612 134.083 798.612 121.972C798.612 109.862 801.479 97.735 807.239 81.8338C807.559 80.9515 808.03 80.3376 808.615 79.9412C809.202 79.5436 809.937 79.3428 810.823 79.3428H855.407C856.537 79.3428 857.289 79.7049 857.661 80.2458C858.03 80.7814 858.108 81.6141 857.623 82.746L857.618 82.7575L857.614 82.7693C852.184 98.0223 849.457 109.99 849.457 121.972C849.457 133.955 852.184 145.922 857.614 161.175Z" stroke="#FF5B24" stroke-width="0.818061"/>
</g>
<defs>
<clipPath id="clip0_118_10210">
<rect width="304" height="42" fill="white" transform="translate(56 90.5)"/>
</clipPath>
<clipPath id="clip1_118_10210">
<rect width="230" height="42" fill="white" transform="translate(56 90.5)"/>
</clipPath>
<clipPath id="clip2_118_10210">
<rect width="190" height="150" fill="white" transform="translate(754 15)"/>
</clipPath>
</defs>
</svg>
